<svg xmlns="http://www.w3.org/2000/svg" viewBox="0 0 737 725.94"><defs><style>.cls-1{fill:#fff;}</style></defs><title>logo2</title><g id="Layer_2" data-name="Layer 2"><g id="Layer_1-2" data-name="Layer 1"><path d="M364.43,76.27C370.35,70,375.58,64,381.35,58.49c24.32-23.13,53.79-37.1,85.43-46.84C501.6.92,537.24-2.14,573.45,1.41c8.49.84,13.19,5.26,14.8,13.74,1,5.39,1.57,10.87,2.06,16.34.4,4.56,2.57,6.33,7.16,6.13,6.32-.28,12.66-.08,19,0,14.9.08,20.76,6,20.74,21.09q-.13,62.74-.26,125.49-.08,80.25-.11,160.49a36.09,36.09,0,0,1-1.45,10.29c-2.39,7.81-8.52,10.57-16.55,10.56,0,10.43.16,20.55-.08,30.66A37.46,37.46,0,0,1,617,407.89c-2.76,7.59-9.74,11.54-19,10.65-12.41-1.19-24.75-3.14-37.15-4.51A451.24,451.24,0,0,0,474.07,413a349.15,349.15,0,0,0-66.27,11.57,33.05,33.05,0,0,0-12.19,6.19c-17.5,14.91-43.36,16.08-60.53,1.1-7.5-6.54-16.19-8.11-24.95-10.2-43-10.26-86.59-12.39-130.52-8.46-14.57,1.31-29.07,3.41-43.62,5.06a48.08,48.08,0,0,1-9,.3c-10-.75-16.63-7.58-16.89-17.56-.25-9.83-.09-19.67-.12-29.5v-5.23a15.72,15.72,0,0,0-1.9-.7c-11.64-2.13-16-7.14-16-19.08-.16-40.33-.2-80.66-.35-121q-.3-82-.67-164a47.06,47.06,0,0,1,.43-8c1.64-9.68,6.88-14.83,16.67-15.58,7.46-.57,15-.34,22.48-.37,6.48,0,7.45-.8,8.33-7.17.61-4.46,1.19-8.91,1.82-13.37,1.39-9.81,6.31-14.82,16.28-15.72A275.87,275.87,0,0,1,242,6.48c35.63,7.88,68.43,22,97.15,44.51C348.34,58.23,355.87,67.61,364.43,76.27ZM532,58.89v6.33q0,32,0,64c0,4.8-1.19,9.12-5.59,11.48-4.56,2.45-8.6.48-12.38-2.48-6.41-5-13.11-9.74-19.4-14.92-3.1-2.56-5.26-2.77-8.5-.13-7.61,6.21-15.48,12.11-23.42,17.89-6.16,4.49-12.12,2.54-14.56-4.66a23.8,23.8,0,0,1-1.06-7.34c-.08-15.49,0-31,0-46.49V77.09c-3.91,1.3-7.22,2.29-10.46,3.48-19.85,7.32-39.31,15.38-57.07,27.17-5,3.34-6.87,7.07-6.54,13a211.33,211.33,0,0,1-.2,25.91c-.33,4.92-4.85,8.06-9.42,7.8s-7.22-3.4-7.3-9c-.14-9.66-.24-19.33,0-29,.09-3.61-.92-6-4.08-7.7C339.25,102,326.9,94.33,313.7,88.54a368.07,368.07,0,0,0-114-29.33,479.88,479.88,0,0,0-81.83-.9c-4.53.35-7.07,1.46-7,7.07q.78,135.7,1.17,271.42c0,2.12.17,4.23.27,6.6,42.45-2.62,84.14-.79,125.34,7.33s80.8,21.12,117.23,44.26c0-10.33,0-19.32,0-28.3,0-15.17,0-30.33.13-45.49,0-5.87,3.53-9.94,8.67-10.43,4.26-.41,8.9,3,10,7.47a21.62,21.62,0,0,1,.3,5q0,32,0,64v7c75.92-42.59,157.53-55.73,243.86-50.82V300.39q0-117,0-233.94c0-7.55-.1-7.73-7.81-8.05C595,57.77,580,57,565,57,554.21,57,543.42,58.2,532,58.89ZM129.1,363.46c0,10.46-.2,20.1.08,29.73.15,5.1,2.11,6.18,7.11,5.51,13.19-1.76,26.36-4,39.61-5,48.6-3.61,96.81-.94,144.37,10.37,3.3.79,6.71,1.14,10.06,1.7l.42-2.25C267.94,369.57,199.93,361.26,129.1,363.46Zm269.17,40.09c.25.73.49,1.47.74,2.2,3.08-.54,6.2-.88,9.22-1.65,36.24-9.27,73.19-12,110.42-12,24.84,0,49.6,1.41,74,6.45,4.08.85,6.81-.08,6.9-4.47.19-10.08.06-20.16.06-30.23a14.67,14.67,0,0,0-1.74-.33c-56.79-3.16-111.85,5.93-165.44,24.23C420.63,391.78,409.64,398.22,398.27,403.55ZM571.12,37.72c-.4-4.27-.89-7.87-1-11.48-.2-4.92-2.39-7.12-7.49-6.89-17.1.79-34.32.37-51.3,2.23-37.13,4.06-71.5,16.42-102,38.35-8.33,6-15.63,13.43-23.41,20.21L387.05,82C444.47,51.72,506.06,39,571.12,37.72Zm-413.21,0c64.68,1.34,126.15,14.06,183.91,42.83a4.83,4.83,0,0,0-1.11-2.43c-1.67-1.85-3.31-3.75-5.12-5.45-13-12.18-28.15-21.21-43.91-29.19-40.14-20.31-83.11-26-127.49-24.16-2.92.13-4.16,1.21-4.43,4.08C159.33,27.85,158.62,32.28,157.91,37.72Zm355,23C501.08,63.07,490,65,479,67.58c-13.1,3-13.05,3.27-13.06,16.84,0,9.74,0,19.48,0,29.12.73.11.94.22,1,.15,5.18-3.9,10.31-7.88,15.55-11.71,5.9-4.32,11-4.25,16.94.1,4.35,3.2,8.65,6.47,13.43,10Z"/><path d="M76.94,550.12C85.06,556,91.23,563,93.25,573.21,96.55,590,89.57,606.13,73.9,613a80.53,80.53,0,0,1-26,6c-12.4.91-24.93.09-37.41-.17C2.58,618.59,0,616,0,608.13Q0,551.94.05,495.76c0-9.32,2.55-12.11,11.89-11.94,16.27.29,32.78-.46,48.73,2.08,26.27,4.17,38.42,35,23.35,56.46C82.14,545,79.6,547.24,76.94,550.12Zm-47.8,43.19c8.32-.56,16.16-.5,23.8-1.75s10.48-5.8,10.33-13.48c-.15-7.52-3.5-12.45-10.76-13.23-7.64-.82-15.44-.19-23.37-.19ZM29.22,540c7.46-.52,14.62-.51,21.59-1.63,6.43-1,9.41-5.88,9.56-13.27.17-8-2-12.33-8.76-13.6-7.21-1.37-14.7-1.28-22.39-1.86Z"/><path d="M238.42,554.38c.42-16.89,1.68-30.35,8-42.63,11.51-22.29,32-32.3,57.86-28.81,19.45,2.64,33.46,12.76,41.08,30.79,9.92,23.51,10.92,47.75,1.8,71.57-10.85,28.33-32.43,37.65-59.42,34.59C262,617,244.28,598.47,240.13,570.94,239.14,564.37,238.75,557.7,238.42,554.38Zm30.27-2.68-1.38.28c1.86,8.37,2.78,17.1,5.9,25a28.42,28.42,0,0,0,11.23,13.28c12.1,7,26.32,2.19,32.39-10.73,8.51-18.12,8.09-36.86.76-55.27-3.67-9.2-10.81-14.61-21.18-14.74-10.7-.15-17.85,5.22-22.47,14.54C269.61,532.76,268.48,542.1,268.69,551.7Z"/><path d="M108.52,551.17c.27-11.76,1.5-23.35,6-34.28,11.15-27.37,32.4-37,59.92-33.87,22.16,2.55,36.35,15.53,43.23,36.26,7,21.09,7.67,42.65.3,63.75-10.76,30.83-33,40.1-60.68,36.83-26.2-3.09-44.12-22.58-47.13-49.8C109.41,563.78,109,557.47,108.52,551.17Zm28.6-3c1,11.09,1.65,21.7,7,31.35,3.57,6.41,8.26,11.69,16,13.15C173,595.1,184,588.8,188.9,576a65.79,65.79,0,0,0,3.46-31,86.64,86.64,0,0,0-5.07-21.13c-3.61-9.4-11.23-14.21-21.39-14.36s-17.83,4.9-21.62,14.06C141,531.4,139.44,539.94,137.12,548.18Z"/><path d="M411.44,566.94c-6.11,6.71-10,13.56-8.88,22.71.7,5.91.25,12,0,18-.37,8.71-3.11,11.22-11.69,11.25-2.5,0-5,.06-7.49-.07-7.92-.39-10.68-3.06-10.92-11.08-.22-7.49-.1-15-.11-22.49q0-44.51,0-89c0-10.62,1.92-12.47,12.54-12.53,2.33,0,4.67,0,7,0,8.17.1,10.79,2.64,10.84,10.8.08,13.83,0,27.67,0,41.5,0,1.27.11,2.53.23,5.2,5.69-9,10.74-16.94,15.66-24.91s10-16.13,14.74-24.34c3.4-5.91,7.84-9.17,15-8.36,4.61.52,9.36-.07,14,.54,5.35.72,6.82,3.85,4.07,8.54-5.88,10.06-12.06,19.94-18.12,29.89-4.33,7.11-8.84,14.11-12.88,21.38a7.3,7.3,0,0,0,.06,6.1c11.31,19.79,22.88,39.44,34.32,59.16,3.75,6.47,2.22,9.24-5.11,9.44-5.33.14-10.66,0-16,.19-5.67.16-9.2-2.58-11.88-7.45-7.86-14.28-16-28.42-24-42.6A20.71,20.71,0,0,0,411.44,566.94Z"/><path d="M573.36,510.56V541.7c9.92,0,19.54,0,29.15,0a32.14,32.14,0,0,1,6.43.61c3.3.71,5.21,2.82,5.26,6.33,0,3.33.24,6.67,0,10-.35,5.62-2.49,7.76-8.19,7.88-9,.19-18,.08-27,.1h-6V583c0,9.17.09,18.33,0,27.49-.06,5.71-2.15,8-7.77,8.18a131.42,131.42,0,0,1-14.45-.19c-5.26-.36-7.63-2.8-7.64-8q-.06-58.48.07-117c0-6.45,2.61-9.5,9-9.61q29-.48,58-.11c6.55.09,8.67,3,8.75,9.6q0,3.5,0,7c-.1,7.33-2.52,9.78-10,9.84-10.16.08-20.32,0-30.49,0C576.77,510.35,575.15,510.48,573.36,510.56Z"/><path d="M684.88,542c7.29-17.71,14.26-34.23,20.86-50.88,2.1-5.28,5.47-7.62,11-7.46,4.16.12,8.33-.07,12.49.1,7.16.29,9.59,4.17,6.45,10.67C724.73,517,713.5,539.49,702.8,562.2a41.52,41.52,0,0,0-3.68,15.21c-.55,10.64-.13,21.32-.17,32,0,6.72-2.11,9-8.81,9.39a99.6,99.6,0,0,1-11.46-.13c-6.18-.37-8.47-2.5-8.61-8.63-.26-11,.12-22-.4-33a36.81,36.81,0,0,0-3.31-13.76c-10.92-22.79-22.26-45.39-33.43-68.06a23.16,23.16,0,0,1-1.9-4.59c-.88-3.52.42-6.37,4.11-6.53,7.29-.31,14.68-.53,21.88.4,2.5.32,5.49,3.73,6.65,6.42,6.87,15.86,13.26,31.93,19.82,47.92C683.79,539.58,684.12,540.3,684.88,542Z"/><path d="M518.91,550.89q0,28.22,0,56.42c0,8.78-2.46,11.38-11.06,11.73a78.92,78.92,0,0,1-9-.06c-7.53-.56-9.62-2.69-9.89-10.23-.2-5.65-.15-11.31-.15-17q0-46.92-.06-93.85c0-13,1.3-14.29,14.21-14.25,2.33,0,4.66,0,7,.08,6.59.24,8.95,2.53,9,9.23.07,19.3,0,38.6,0,57.9Z"/><path d="M554.51,707.49c2.54-9.56,5.13-19.1,7.58-28.67.78-3,1.45-6,5.4-6,3.79-.08,5.61,2,6.5,5.54a299.15,299.15,0,0,0,8.64,29.2q3.24-13.08,6.48-26.17c.4-1.61.76-3.24,1.11-4.86.78-3.68,3.54-4.67,6.37-3.41,1.37.61,2.77,3.69,2.42,5.27-2.56,11.34-5.57,22.58-8.42,33.86-.61,2.41-1.17,4.83-1.72,7.26-.71,3.15-2,5.68-5.8,5.68s-6.07-1.91-7-5.73a235.29,235.29,0,0,0-8.48-29c-1.19,4.11-2.46,8.21-3.55,12.35-1.5,5.62-2.88,11.27-4.27,16.92-.79,3.25-2.54,5.46-6.11,5.49s-5.45-2-6.26-5.29c-3.4-13.71-6.86-27.41-10.19-41.14-.61-2.53-.63-5.24,2.77-5.9,3.23-.64,5.38.53,6.18,4.07,2.29,10.19,4.76,20.35,7.16,30.51Z"/><path d="M107.62,697.87c6.13,3.66,6.94,9.26,6.33,15.35s-4.61,10.7-10.8,11.17a169.66,169.66,0,0,1-20.42.2c-1.3-.06-3.54-2.58-3.56-4q-.39-21.45,0-42.9c0-1.52,2.08-4.26,3.26-4.29,6.43-.2,13.08-.63,19.29.7C112.74,676.47,115.61,689.13,107.62,697.87ZM88.36,716.2c3.65,0,6.94.19,10.2-.06s5.53-1.95,5.68-5.68-1.13-6.79-5.09-7.32c-3.49-.48-7.09-.1-10.79-.1Zm.24-35.57v14.62c4.82-1.45,9.07-2.25,12.77-4.15.95-.49.91-6,0-6.51C97.62,682.74,93.37,682,88.6,680.63Z"/><path d="M126.14,699.26c0-16.91,9.63-27.28,24.64-26.68,9.24.37,17.23,6.06,20,14.72a39.8,39.8,0,0,1,.39,23.13c-3.12,11-12.44,16.63-24.73,15.33-11.75-1.24-19.26-9.19-20.26-21.51C126,702.6,126.14,700.92,126.14,699.26Zm36.57.15a82.13,82.13,0,0,0-1.34-8.68c-1.77-6.42-5.91-9.55-12.21-9.59-5.87,0-10.77,3.08-11.64,9.43a60.93,60.93,0,0,0,.65,19c1,5.32,5.94,8,11.31,7.85s9.75-3,11.33-8.09A81.68,81.68,0,0,0,162.71,699.41Z"/><path d="M185,699.17c0-20.17,15.66-31.89,33.06-24.66,12.88,5.35,18.19,24,11.11,39-5.4,11.45-20.47,16-32.65,9.48C187,717.89,185,708.94,185,699.17Zm9.49-.23c.81,3.58,1.25,7.07,2.41,10.3,2,5.61,6.15,8.23,11.83,8.15a11.66,11.66,0,0,0,11.34-8.23,28.11,28.11,0,0,0-.44-20.95c-2-4.76-5.9-7.05-11.06-7.09s-9.25,1.88-11.15,6.8C196,691.42,195.43,695.22,194.47,698.94Z"/><path d="M346,704.6c2.74,4.67,5.25,9,7.78,13.26,1.4,2.38,2.89,5.06-.3,6.9-2.88,1.65-5.94,1.1-7.82-2a125,125,0,0,1-6.87-12.13c-1.77-3.72-4.08-5.47-8.77-3.93,0,4.37-.11,9,0,13.59.11,3.46-1.66,4.91-4.8,4.91s-5.06-1.4-5.06-4.8q0-21.45,0-42.89c0-3.18,1.67-4.55,4.65-4.52,5.15.06,10.32-.08,15.43.38,7.56.69,12.85,5.23,14.43,11.76a17.6,17.6,0,0,1-6.76,18.07C347.4,703.64,346.85,704,346,704.6ZM330.37,682v15.46c5.16-.44,10.81,1.48,13.78-3.8a9.91,9.91,0,0,0,0-8.32C341.08,679.86,335.39,682.46,330.37,682Z"/><path d="M255.71,694.08c5.6-6.67,10.24-12.21,14.9-17.75.75-.89,1.5-2.37,2.36-2.46a75.12,75.12,0,0,1,8.49,0c-.66,2.15-.78,4.73-2.09,6.36-4.25,5.3-8.94,10.24-13.57,15.45,5.41,7.48,10.69,14.73,15.89,22,1.48,2.07,4.18,4.57.89,6.76-2.85,1.89-6.47,2.05-8.92-1.24-4.56-6.15-9-12.42-13.42-18.63-.38-.53-.81-1-2-2.6-1,2.55-2.25,4.39-2.41,6.32a108.79,108.79,0,0,0-.06,12c.09,3.4-1.67,4.92-4.82,5s-4.91-1.36-4.89-4.81q.1-21.74,0-43.47c0-3.36,1.84-4.27,4.77-4.26s4.91.94,4.92,4.22C255.73,682.19,255.71,687.44,255.71,694.08Z"/><path d="M630.11,725.78c-7.1.14-12.64-1.31-17.29-5.27-2.7-2.3-4.78-5.42-1.92-8.57s5.82-1.25,8.16,1.29c3.69,4,8.24,5.2,13.12,3.32,2-.75,4.33-3.22,4.49-5.08s-1.7-4.72-3.49-5.85c-2.73-1.73-6.22-2.22-9.28-3.5-2.9-1.21-5.95-2.37-8.42-4.23a13.57,13.57,0,0,1,2.89-23.32c8.14-3.51,16-2.73,23.14,2.49,2.6,1.89,5,4.78,2.21,8-2.49,2.89-5.39,1.49-7.79-.79-3.14-3-6.9-4.38-11-2.82a8.12,8.12,0,0,0-4.49,4.59c-.44,1.6.8,4.23,2.13,5.57,1.69,1.68,4.16,2.67,6.42,3.66,3,1.34,6.27,2.24,9.29,3.6,5.63,2.53,9.12,6.55,8.63,13.19-.42,5.77-4.29,10.58-10.55,12.5A47.25,47.25,0,0,1,630.11,725.78Z"/><path d="M503,681.46v14c4.25,0,8.35.08,12.44,0,2.81-.08,5,.3,5,3.85,0,3.71-2.11,4.39-5.19,4.32-4-.1-7.91,0-12.12,0v13c5.54,0,11,.06,16.42,0,2.92,0,4.85.75,5,4.09.11,3.57-1.86,4.55-5,4.51-6.82-.07-13.65,0-20.47,0-4.16,0-6-2-5.92-6.17q.13-20.48,0-41c0-3.64,1.61-5.17,5.09-5.17,7,0,14,.09,21-.06,3.33-.08,4.41,1.53,4.45,4.51,0,3.27-1.63,4.32-4.7,4.24C513.69,681.37,508.56,681.46,503,681.46Z"/><path d="M379.76,703.55v13c5.3,0,10.54,0,15.77,0,3.07,0,5.65.31,5.73,4.39.07,4.3-2.7,4.24-5.69,4.22q-10-.08-20-.05c-3.81,0-5.8-1.49-5.77-5.63q.17-20.7,0-41.41c0-4,1.85-5.26,5.49-5.22q10.21.11,20.45,0c3,0,4.6,1,4.65,4.3s-1.25,4.52-4.42,4.45c-5.29-.1-10.57,0-16.19,0v13.91c4.29,0,8.55.06,12.8,0,3-.06,4.66,1,4.62,4.32s-1.79,3.92-4.51,3.87C388.59,703.5,384.46,703.55,379.76,703.55Z"/><path d="M433.5,710.59q4.74-14.07,9.48-28.15c.74-2.21.94-4.85,2.32-6.51s3.85-2.16,5.86-3.18c.89,1.85,2.95,4.09,2.5,5.51-4.69,14.56-9.64,29-15,43.38-.61,1.65-4.08,3.5-5.84,3.17-2.32-.43-5.35-2.5-6.15-4.61-3.56-9.3-6.45-18.87-9.56-28.35-1.4-4.26-2.74-8.55-4.14-12.81-.83-2.56-1.31-5.19,2-6.14,3-.87,5.7-.09,6.79,3.32,1.46,4.59,2.82,9.22,4.24,13.83q3.15,10.23,6.33,20.46Z"/><path d="M476.91,699c0,7-.07,14,0,21,.05,3.54-1.5,5.34-5,5.35s-5-1.85-4.93-5.37c.09-14,.13-27.94,0-41.91,0-3.71,1.53-5.11,5-5.17,3.61-.07,5,1.61,4.94,5.19C476.81,685,476.91,692,476.91,699Z"/><path class="cls-1" d="M532,58.89C543.42,58.2,554.21,57,565,57c15,0,30,.74,44.93,1.37,7.71.32,7.81.5,7.81,8.05q0,117,0,233.94v42.95c-86.33-4.91-167.94,8.23-243.86,50.82v-7q0-32,0-64a21.62,21.62,0,0,0-.3-5c-1.09-4.52-5.73-7.88-10-7.47-5.14.49-8.64,4.56-8.67,10.43-.1,15.16-.11,30.32-.13,45.49,0,9,0,18,0,28.3-36.43-23.14-76-36.14-117.23-44.26s-82.89-10-125.34-7.33c-.1-2.37-.26-4.48-.27-6.6q-.54-135.7-1.17-271.42c0-5.61,2.5-6.72,7-7.07a479.88,479.88,0,0,1,81.83.9,368.07,368.07,0,0,1,114,29.33C326.9,94.33,339.25,102,352,108.81c3.16,1.68,4.17,4.09,4.08,7.7-.26,9.65-.16,19.32,0,29,.08,5.6,2.81,8.74,7.3,9s9.09-2.88,9.42-7.8a211.33,211.33,0,0,0,.2-25.91c-.33-6,1.51-9.7,6.54-13C397.29,96,416.75,87.89,436.6,80.57c3.24-1.19,6.55-2.18,10.46-3.48v5.47c0,15.5-.05,31,0,46.49a23.8,23.8,0,0,0,1.06,7.34c2.44,7.2,8.4,9.15,14.56,4.66,7.94-5.78,15.81-11.68,23.42-17.89,3.24-2.64,5.4-2.43,8.5.13,6.29,5.18,13,9.88,19.4,14.92,3.78,3,7.82,4.93,12.38,2.48,4.4-2.36,5.6-6.68,5.59-11.48q-.06-32,0-64ZM450.3,174.34c-11.61-.08-18,3.84-22,11-6.44,11.56-6.19,23.65-.66,35.39,4,8.51,11.09,13,20.8,12.72,9.19-.3,15.24-5.35,18.77-13.35a37.69,37.69,0,0,0-.67-33.21C462.71,179.13,456.24,174.48,450.3,174.34Zm-193,29.79c1.22,4.92,1.88,10.65,4.07,15.73,3.44,8,9.8,13,18.82,13.51S296,229.79,300.32,222c6.14-10.94,6-22.35,1.28-33.63-4-9.51-12.08-14.46-21.53-14-9,.41-16.89,6.74-19.89,16.35C258.91,194.77,258.35,199.08,257.3,204.13ZM367.39,277c4.44-1.27,12.72-2.69,20.15-6,9.42-4.21,17-11.12,20.6-21.32,2.25-6.36.18-11.91-4.82-14-5.65-2.37-10.46-.16-13.48,6.48-3.22,7.08-9.15,11-16.06,13.25-12.63,4.17-30.34-.86-35.77-14.78-2.09-5.37-7.39-7-12.44-5.1-4.6,1.76-7,6.4-5.67,11.84a25.26,25.26,0,0,0,3.15,7.77C332.52,269.76,346.61,275.91,367.39,277Z"/><path class="cls-1" d="M129.1,363.46c70.83-2.2,138.84,6.11,201.65,40.06l-.42,2.25c-3.35-.56-6.76-.91-10.06-1.7-47.56-11.31-95.77-14-144.37-10.37-13.25,1-26.42,3.24-39.61,5-5,.67-7-.41-7.11-5.51C128.9,383.56,129.1,373.92,129.1,363.46Z"/><path class="cls-1" d="M398.27,403.55c11.37-5.33,22.36-11.77,34.17-15.8,53.59-18.3,108.65-27.39,165.44-24.23a14.67,14.67,0,0,1,1.74.33c0,10.07.13,20.15-.06,30.23-.09,4.39-2.82,5.32-6.9,4.47-24.41-5-49.17-6.45-74-6.45-37.23,0-74.18,2.73-110.42,12-3,.77-6.14,1.11-9.22,1.65C398.76,405,398.52,404.28,398.27,403.55Z"/><path class="cls-1" d="M571.12,37.72C506.06,39,444.47,51.72,387.05,82l-1.14-1.83c7.78-6.78,15.08-14.22,23.41-20.21,30.47-21.93,64.84-34.29,102-38.35,17-1.86,34.2-1.44,51.3-2.23,5.1-.23,7.29,2,7.49,6.89C570.23,29.85,570.72,33.45,571.12,37.72Z"/><path class="cls-1" d="M157.91,37.72c.71-5.44,1.42-9.87,1.85-14.32.27-2.87,1.51-3.95,4.43-4.08,44.38-1.84,87.35,3.85,127.49,24.16,15.76,8,30.91,17,43.91,29.19,1.81,1.7,3.45,3.6,5.12,5.45a4.83,4.83,0,0,1,1.11,2.43C284.06,51.78,222.59,39.06,157.91,37.72Z"/><path class="cls-1" d="M512.86,60.7v51.43c-4.78-3.58-9.08-6.85-13.43-10-5.91-4.35-11-4.42-16.94-.1-5.24,3.83-10.37,7.81-15.55,11.71-.09.07-.3,0-1-.15,0-9.64,0-19.38,0-29.12,0-13.57,0-13.79,13.06-16.84C490,65,501.08,63.07,512.86,60.7Z"/><path d="M450.3,174.34c5.94.14,12.41,4.79,16.28,12.55a37.69,37.69,0,0,1,.67,33.21c-3.53,8-9.58,13.05-18.77,13.35-9.71.32-16.79-4.21-20.8-12.72-5.53-11.74-5.78-23.83.66-35.39C432.33,178.18,438.69,174.26,450.3,174.34Z"/><path d="M257.3,204.13c1.05-5,1.61-9.36,2.88-13.44,3-9.61,10.93-15.94,19.89-16.35,9.45-.43,17.58,4.52,21.53,14,4.69,11.28,4.86,22.69-1.28,33.63-4.36,7.79-11.16,11.83-20.13,11.37s-15.38-5.52-18.82-13.51C259.18,214.78,258.52,209.05,257.3,204.13Z"/><path d="M367.39,277c-20.78-1.09-34.87-7.24-44.34-21.88a25.26,25.26,0,0,1-3.15-7.77c-1.32-5.44,1.07-10.08,5.67-11.84,5.05-1.93,10.35-.27,12.44,5.1,5.43,13.92,23.14,18.95,35.77,14.78,6.91-2.28,12.84-6.17,16.06-13.25,3-6.64,7.83-8.85,13.48-6.48,5,2.1,7.07,7.65,4.82,14-3.59,10.2-11.18,17.11-20.6,21.32C380.11,274.31,371.83,275.73,367.39,277Z"/></g></g></svg>